<svg width="500" height="500" viewBox="0 0 500 500" fill="none" xmlns="http://www.w3.org/2000/svg">
<rect width="500" height="500" fill="#F5F5F5"/>
<g id="2020759_270055-P5KT2E-97 1">
<g id="OBJECTS">
<path id="left-top-leaf" d="M150.689 125.985C150.689 125.985 138.717 139.607 137.761 128.352C136.805 117.098 155.281 116.1 155.281 116.1C154.818 113.356 146.77 105.544 146.77 105.544C130.095 95.668 127.927 115.938 123.586 124.919C119.245 133.9 116.78 128.065 116.78 128.065C109.849 113.305 136.219 100.464 136.219 100.464C127.353 93.005 120.392 96.001 120.392 96.001C92.67 105.235 109.697 121.189 104.531 131.665C99.365 142.14 97.081 134.186 97.081 134.186C92.625 114.944 107.429 97.76 107.429 97.76C98.878 91.754 89.743 96.656 89.743 96.656C74.26 112.607 89.093 137.906 78.274 132.949C67.455 127.991 82.685 100.706 82.685 100.706C82.685 100.706 75.925 94.143 67.358 103.613C58.791 113.083 74.128 136.575 66.291 132.41C58.454 128.245 55.607 110.565 55.607 110.565C30.702 131.712 64.263 155.111 64.263 155.111L64.205 155.179C64.205 155.179 46.87 188.865 80.438 198.194C80.438 198.194 73.471 181.347 78.217 174.639C82.963 167.93 81.923 194.734 94.65 199.899C107.377 205.064 109.874 196.631 109.874 196.631C109.874 196.631 81.629 178.133 88.608 169.578C95.586 161.023 95.966 189.244 118.342 197.542C118.342 197.542 129.119 198.419 133.513 189.797C133.513 189.797 111.079 180.14 104.707 161.285C104.707 161.285 102.466 153.323 112.703 160.685C122.939 168.047 116.34 188.777 146.014 186.41C146.014 186.41 153.829 186.42 157.722 176.382C157.722 176.382 127.314 175.018 125.557 159.212C125.557 159.212 124.617 153.069 133.315 159.415C142.013 165.761 154.843 182.999 164.397 167.822C164.397 167.822 167.37 157.782 166.308 155.159C166.308 155.159 149.303 161.333 144.105 150.936C138.906 140.539 156.901 148.104 156.901 148.104C156.901 148.104 168.672 159.601 173.487 144.895L177.194 132.378L177.34 132.349L167.199 122.505C155.001 111.238 150.689 125.985 150.689 125.985Z" fill="#175648"/>
<g id="left-leaf">
<g id="Group">
<path id="Vector" d="M171.066 284.841C165.35 272.583 140.312 265.67 140.312 265.67C97.192 252.633 106.423 193.298 106.423 193.298L117.787 198.002L108.603 191.028L108.594 184.913C111.632 172.241 121.688 178.341 121.688 178.341C131.725 172.21 143.105 187.48 145.298 193.239C147.491 198.997 152.298 200.57 152.298 200.57L154.937 212.359L154.923 203.186C183.347 223.671 173.349 254.699 167.244 261.261C161.139 267.823 167.268 276.469 167.268 276.469L171.066 284.841Z" fill="#0B6060"/>
</g>
<g id="Group_2">
<path id="Vector_2" d="M121.688 178.339C133.83 208.648 145.457 240.401 161.791 268.735C164.3 273.087 167.676 276.396 170.825 280.282C173.32 283.361 177.329 290.086 174.955 294.202C172.356 298.709 166.904 280.748 165.944 278.715C163.365 273.255 158.886 268.862 156.763 263.167C153.4 254.145 125.791 195.659 121.688 178.339Z" fill="#10949B"/>
</g>
<g id="Group_3">
<path id="Vector_3" d="M126.295 177.871C126.214 177.88 126.302 177.727 126.361 177.783C126.42 177.839 126.383 177.936 126.342 178.006C125.46 179.532 124.478 181 123.404 182.397" fill="#10949B"/>
</g>
<g id="Group_4">
<path id="Vector_4" d="M128.427 177.167C128.234 179.967 126.95 182.678 124.905 184.6Z" fill="#10949B"/>
</g>
<g id="Group_5">
<path id="Vector_5" d="M132.297 178.761C132.256 182.959 130.452 187.112 127.411 190.007Z" fill="#10949B"/>
</g>
<g id="Group_6">
<path id="Vector_6" d="M136.222 181.067C135.812 185.861 133.068 190.196 129.641 193.574Z" fill="#10949B"/>
</g>
<g id="Group_7">
<path id="Vector_7" d="M139.979 185.02C139.56 187.178 138.342 189.085 137.121 190.914C135.168 193.838 133.053 196.801 130.032 198.6" fill="#10949B"/>
</g>
<g id="Group_8">
<path id="Vector_8" d="M144.144 190.353C141.756 195.755 138.437 201.135 133.177 203.82Z" fill="#10949B"/>
</g>
<g id="Group_9">
<path id="Vector_9" d="M146.917 196.65C145.057 202.221 140.539 206.839 135.009 208.819Z" fill="#10949B"/>
</g>
<g id="Group_10">
<path id="Vector_10" d="M150.939 200.136C149.799 203.397 148.491 206.659 146.365 209.381C144.239 212.104 141.177 214.258 137.74 214.601" fill="#10949B"/>
</g>
<g id="Group_11">
<path id="Vector_11" d="M152.508 204.021C151.946 207.633 150.839 211.201 148.88 214.287C146.921 217.373 144.063 219.956 140.63 221.212" fill="#10949B"/>
</g>
<g id="Group_12">
<path id="Vector_12" d="M155.044 212.659C155.491 214.107 155.227 215.702 154.615 217.089C154.004 218.476 153.067 219.691 152.125 220.879C149.574 224.094 146.668 227.379 142.718 228.494" fill="#10949B"/>
</g>
<g id="Group_13">
<path id="Vector_13" d="M160.882 208.602C161.238 213.462 161.551 218.569 159.49 222.985C157.07 228.168 151.873 231.385 146.939 234.278" fill="#10949B"/>
</g>
<g id="Group_14">
<path id="Vector_14" d="M166.751 215.103C166.245 220.89 164.978 226.697 162.191 231.794C159.404 236.891 154.975 241.242 149.484 243.139" fill="#10949B"/>
</g>
<g id="Group_15">
<path id="Vector_15" d="M170.48 221.219C171.095 225.798 169.226 230.339 166.994 234.385C163.601 240.535 158.731 246.535 151.911 248.216" fill="#10949B"/>
</g>
<g id="Group_16">
<path id="Vector_16" d="M173.685 233.565C172.881 240.11 167.985 245.321 163.169 249.826C160.93 251.92 158.506 254.051 155.512 254.707" fill="#10949B"/>
</g>
<g id="Group_17">
<path id="Vector_17" d="M173.373 248.407C170.514 250.976 167.876 253.791 165.496 256.81C163.788 258.978 161.873 261.452 159.125 261.709" fill="#10949B"/>
</g>
<g id="Group_18">
<path id="Vector_18" d="M122.554 182.694C121.747 182.985 120.857 183.042 120.019 182.856C119.579 182.758 119.155 182.595 118.745 182.408C117.011 181.617 115.486 180.372 114.364 178.831" fill="#10949B"/>
</g>
<g id="Group_19">
<path id="Vector_19" d="M123.798 184.871C121.455 185.495 118.92 185.388 116.646 184.547C114.372 183.706 112.372 182.131 111.041 180.105" fill="#10949B"/>
</g>
<g id="Group_20">
<path id="Vector_20" d="M126.062 190.711C124.803 190.429 123.502 190.801 122.219 190.934C117.564 191.417 112.983 188.575 110.486 184.617" fill="#10949B"/>
</g>
<g id="Group_21">
<path id="Vector_21" d="M127.423 194.201C125.826 195.546 123.626 195.933 121.538 195.938C120.194 195.941 118.798 195.791 117.648 195.095" fill="#10949B"/>
</g>
<g id="Group_22">
<path id="Vector_22" d="M128.92 198.616C126.947 199.365 124.789 199.44 122.679 199.427C122.234 199.424 121.784 199.417 121.353 199.309C120.945 199.207 120.566 199.017 120.19 198.829C119.442 198.454 118.693 198.079 117.945 197.704" fill="#10949B"/>
</g>
<g id="Group_23">
<path id="Vector_23" d="M130.905 204.906C128.866 205.559 126.787 206.218 124.646 206.216C123.511 206.215 122.385 206.028 121.265 205.84C118.931 205.45 116.584 205.057 114.355 204.264C112.126 203.471 109.999 202.249 108.474 200.44" fill="#10949B"/>
</g>
<g id="Group_24">
<path id="Vector_24" d="M132.936 209.102C130.77 210.069 128.452 210.722 126.086 210.907C121.612 211.256 117.194 209.939 112.899 208.635C110.829 208.007 108.616 207.281 107.323 205.547" fill="#10949B"/>
</g>
<g id="Group_25">
<path id="Vector_25" d="M135.089 214.666C131.175 217.351 126.162 217.748 121.416 217.766C119.094 217.775 116.747 217.712 114.501 217.121C112.256 216.53 110.096 215.365 108.691 213.516" fill="#10949B"/>
</g>
<g id="Group_26">
<path id="Vector_26" d="M138.875 222.061C134.334 225.254 128.788 227.06 123.239 226.904C117.69 226.748 112.178 224.581 108.174 220.737" fill="#10949B"/>
</g>
<g id="Group_27">
<path id="Vector_27" d="M141.795 228.921C140.444 230.12 139.08 231.329 137.51 232.222C136.068 233.042 134.481 233.577 132.88 234.014C128.974 235.079 124.882 235.581 120.86 235.121C116.838 234.661 112.886 233.205 109.742 230.654" fill="#10949B"/>
</g>
<g id="Group_28">
<path id="Vector_28" d="M144.504 236.184C139.824 240.195 133.525 241.722 127.411 242.508C123.154 243.055 118.595 243.253 114.816 241.219" fill="#10949B"/>
</g>
<g id="Group_29">
<path id="Vector_29" d="M148.457 243.826C148.198 244.467 147.631 244.925 147.07 245.329C139.729 250.623 129.85 251.479 121.067 249.295" fill="#10949B"/>
</g>
<g id="Group_30">
<path id="Vector_30" d="M150.636 249.174C144.393 255.405 134.652 257.87 126.196 255.358Z" fill="#10949B"/>
</g>
<g id="Group_31">
<path id="Vector_31" d="M153.427 255.446C149.404 259.578 143.364 261.647 137.653 260.849Z" fill="#10949B"/>
</g>
<g id="Group_32">
<path id="Vector_32" d="M156.049 262.087C154.333 263.795 151.873 264.51 149.488 264.924C147.35 265.295 145.178 265.477 143.008 265.467" fill="#10949B"/>
</g>
</g>
<g id="Group_33">
<g id="Group_34">
<path id="Vector_33" d="M261.54 285.135L256.282 284.599L266.235 146.221L271.493 146.758L261.54 285.135Z" fill="#6D431B"/>
</g>
<g id="Group_35">
<g id="Group_36">
<path id="Vector_34" d="M199.564 152.411L202.128 154.117L337.891 161.037L335.534 158.268L199.564 152.411Z" fill="#6D431B"/>
</g>
<g id="Group_37">
<path id="Vector_35" d="M335.565 122.688L337.102 124.198L336.578 142.499L329.952 143.88L335.041 140.989L335.565 122.688Z" fill="#6D431B"/>
</g>
<g id="Group_38">
<path id="Vector_36" d="M334.951 144.135L336.529 144.215L336.259 153.652L332.97 153.484L336.095 159.371L334.516 159.291L326.016 152.557L329.813 148.741L334.951 144.135Z" fill="#6D431B"/>
</g>
<g id="Group_39">
<path id="Vector_37" d="M200.612 115.808L203.334 121.962L200.383 123.815L200.17 131.25L201.551 133.612L200.047 135.54L199.564 152.411L334.516 159.291L330.512 151.927L334.697 152.999L334.951 144.135L329.952 143.88L335.041 140.989L335.565 122.688L200.612 115.808Z" fill="#B4763B"/>
</g>
<g id="Group_40" opacity="0.38">
<g id="Group_41">
<path id="Vector_38" d="M223.842 116.548C223.659 117.602 223.269 118.578 222.6 119.489C222.257 119.934 221.825 120.352 221.291 120.666C220.764 120.99 220.112 121.159 219.52 121.15C218.316 121.132 217.392 120.585 216.42 120.48C215.442 120.336 214.537 120.653 213.78 121.267C213.016 121.859 212.258 122.563 211.174 123.018C210.074 123.506 208.836 123.593 207.784 123.455C206.716 123.305 205.777 123.054 204.797 122.767C203.827 122.469 202.862 122.141 201.918 121.662L201.946 121.464C204.001 121.098 206.083 121.192 207.989 121.329C208.921 121.387 209.745 121.452 210.536 121.239C211.344 121.013 212.263 120.583 213.293 120.286C214.308 119.956 215.425 119.807 216.454 119.836C217.48 119.834 218.547 119.715 219.348 119.491C219.752 119.381 220.083 119.271 220.433 119.107C220.776 118.933 221.121 118.7 221.467 118.419C222.173 117.864 222.83 117.112 223.669 116.447L223.842 116.548Z" fill="#6D431B"/>
</g>
<g id="Group_42">
<path id="Vector_39" d="M233.792 117.702C233.073 119.202 231.672 120.395 230.024 121.002C229.211 121.314 228.277 121.45 227.433 121.443C226.599 121.455 225.885 121.392 225.277 121.491C224.73 121.564 224.116 121.87 223.808 122.361C223.648 122.613 223.591 122.885 223.617 123.259C223.644 123.626 223.752 124.068 223.662 124.562C223.587 125.067 223.216 125.487 222.805 125.708C222.389 125.94 221.918 126.008 221.446 125.961C220.546 125.836 219.795 125.4 219.097 125.237C217.685 124.894 216.278 125.203 214.832 125.624C213.386 126.071 211.915 126.714 210.236 127.065C206.887 127.714 203.305 127.056 200.615 125.174L200.695 124.99C203.847 125.649 206.903 125.69 209.783 124.98C211.219 124.652 212.727 124.124 214.369 123.791C215.188 123.623 216.049 123.497 216.935 123.542C217.818 123.577 218.713 123.817 219.496 124.217C220.282 124.616 220.868 125.144 221.557 125.29C222.19 125.457 222.988 125.073 223.02 124.463C223.049 124.159 222.921 123.815 222.809 123.404C222.676 123 222.635 122.443 222.781 121.954C223.076 120.955 223.879 120.209 224.859 119.878C225.804 119.578 226.706 119.637 227.458 119.671C228.205 119.706 228.873 119.66 229.586 119.513C230.997 119.224 232.35 118.548 233.635 117.574L233.792 117.702Z" fill="#6D431B"/>
</g>
<g id="Group_43">
<path id="Vector_40" d="M244.524 117.864C245.071 117.81 245.548 118.297 245.729 118.784C245.919 119.279 245.97 119.876 245.694 120.445C245.454 120.967 245.018 121.384 244.567 121.658C244.118 121.94 243.644 122.135 243.212 122.281C242.789 122.429 242.407 122.577 242.106 122.75C241.783 122.932 241.622 123.068 241.413 123.374C241.285 123.541 241.142 123.795 240.814 124.053C240.654 124.178 240.428 124.302 240.201 124.358C239.98 124.417 239.8 124.422 239.672 124.427C239.386 124.434 239.398 124.443 239.378 124.433C239.349 124.431 239.261 124.483 239.161 124.603C238.947 124.832 238.72 125.245 238.379 125.663C238.045 126.061 237.658 126.402 237.243 126.678C236.408 127.228 235.496 127.558 234.582 127.756C232.742 128.156 230.887 128.011 229.085 127.977L223.75 127.91C221.98 127.911 220.217 127.962 218.454 128.01C214.922 128.053 211.399 128.247 207.763 128.349L207.722 128.153C211.11 126.786 214.735 126.107 218.372 125.878C220.194 125.79 222.021 125.855 223.836 126.021C225.651 126.157 227.456 126.47 229.221 126.89C230.955 127.3 232.752 127.625 234.419 127.128C235.237 126.877 235.99 126.428 236.537 125.83C236.812 125.533 237.039 125.208 237.21 124.864C237.382 124.544 237.503 124.12 237.817 123.621C237.979 123.379 238.208 123.096 238.579 122.886C238.756 122.785 238.987 122.705 239.174 122.681C239.36 122.654 239.5 122.654 239.594 122.647C239.817 122.623 239.686 122.641 239.712 122.632C239.739 122.612 239.857 122.493 240 122.305C240.309 121.875 240.867 121.432 241.353 121.226C241.857 121.001 242.341 120.896 242.778 120.792C243.63 120.608 244.349 120.411 244.779 119.902C245.14 119.503 245.246 118.394 244.505 118.063L244.524 117.864Z" fill="#6D431B"/>
</g>
<g id="Group_44">
<path id="Vector_41" d="M251.133 118.506C251.733 118.73 252.054 119.463 252.028 120.098C252.005 120.742 251.801 121.371 251.4 121.911C251.214 122.18 250.923 122.438 250.643 122.619C250.371 122.794 250.085 122.933 249.806 123.052C249.247 123.289 248.705 123.463 248.237 123.649C247.758 123.839 247.398 124.058 247.093 124.359C246.762 124.665 246.429 125.117 245.957 125.573C245.021 126.475 243.881 126.998 242.808 127.384C240.626 128.175 238.343 128.461 236.134 128.85C233.917 129.225 231.717 129.654 229.524 130.135C228.425 130.37 227.279 130.624 226.054 130.603C224.819 130.586 223.67 130.293 222.605 130.073C220.517 129.623 218.431 129.67 216.259 129.851C214.092 129.996 211.876 130.335 209.594 130.413C207.327 130.522 204.958 130.345 202.815 129.558L202.858 129.363C207.347 129.659 211.484 128.235 216.066 127.728C217.208 127.616 218.381 127.57 219.556 127.641C220.725 127.742 221.935 127.929 223.043 128.245C224.148 128.545 225.163 128.866 226.165 129.003C227.175 129.136 228.263 129.121 229.375 129.052C231.609 128.916 233.841 128.736 236.005 128.216C238.173 127.711 240.224 126.81 242.159 125.853C243.14 125.38 244.043 124.899 244.755 124.275C245.107 123.974 245.459 123.532 245.963 123.093C246.49 122.641 247.151 122.353 247.729 122.187C248.316 122.005 248.865 121.922 249.36 121.788C249.609 121.724 249.839 121.643 250.057 121.55C250.265 121.462 250.427 121.377 250.598 121.214C250.926 120.907 251.206 120.481 251.334 120.016C251.457 119.559 251.431 119.043 251.031 118.68L251.133 118.506Z" fill="#6D431B"/>
</g>
<g id="Group_45">
<path id="Vector_42" d="M259.154 118.902C259.7 119.389 259.912 120.245 259.745 120.987C259.598 121.738 259.223 122.416 258.72 122.984C258.47 123.271 258.176 123.525 257.852 123.753C257.502 123.982 257.192 124.119 256.865 124.276C256.22 124.571 255.592 124.82 255.032 125.092C254.472 125.366 254 125.688 253.682 126.086C253.341 126.434 253.201 127.015 252.667 127.78C252.396 128.159 251.953 128.516 251.508 128.686C251.06 128.864 250.629 128.924 250.243 128.952C249.454 129.003 248.873 128.939 248.224 128.993C246.946 129.043 245.657 129.261 244.414 129.673C243.169 130.071 241.962 130.705 240.725 131.305C238.261 132.59 235.39 133.058 232.614 132.9C229.82 132.799 227.115 132.201 224.493 131.75C221.87 131.292 219.28 131.247 216.655 131.461C211.403 131.849 206.195 133.375 200.882 134.645L200.813 134.457C205.68 132.013 210.856 129.934 216.466 129.336C219.251 129.046 222.142 129.281 224.847 129.902C227.56 130.465 230.111 131.34 232.729 131.811C234.037 132.016 235.37 132.15 236.684 131.976C238.001 131.821 239.258 131.381 240.429 130.728C241.607 130.086 242.717 129.279 243.99 128.643C245.258 128.017 246.631 127.561 248.055 127.336C248.757 127.231 249.538 127.208 250.105 127.175C250.711 127.114 251.025 126.995 251.262 126.702C251.548 126.381 251.805 125.605 252.413 124.956C252.994 124.325 253.728 123.947 254.404 123.674C255.769 123.114 257.094 122.993 257.975 122.224C258.43 121.837 258.846 121.355 259.072 120.795C259.316 120.243 259.338 119.6 259.001 119.029L259.154 118.902Z" fill="#6D431B"/>
</g>
<g id="Group_46">
<path id="Vector_43" d="M278.854 119.668C279.718 120.139 279.968 121.269 279.787 122.191C279.628 123.18 278.87 124.013 278.045 124.476C277.209 124.971 276.327 125.212 275.483 125.456C274.628 125.687 273.769 125.899 272.91 126.064C269.487 126.756 266.095 127.211 263.207 128.725C262.846 128.917 262.501 129.095 262.09 129.335C261.689 129.558 261.174 129.799 260.63 129.871C259.578 130 258.79 129.802 258.183 130.07C257.549 130.336 256.831 130.975 256.053 131.42C255.272 131.862 254.477 132.276 253.636 132.564C250.287 133.785 246.716 133.923 243.238 133.986C239.752 134.041 236.307 134.017 232.906 134.236C229.513 134.464 226.18 135.155 222.779 135.809C219.381 136.434 215.919 137.091 212.378 137.234C210.611 137.321 208.828 137.204 207.074 136.984C205.319 136.727 203.608 136.226 201.998 135.549L202.061 135.359C203.762 135.714 205.457 135.933 207.16 135.976C208.864 136.006 210.558 135.883 212.246 135.664C215.621 135.213 218.963 134.441 222.363 133.716C225.755 133.008 229.271 132.451 232.812 132.356C236.341 132.222 239.835 132.56 243.275 132.891C246.685 133.18 250.233 133.274 253.398 131.96C254.188 131.651 254.909 131.203 255.6 130.734C255.925 130.462 256.254 130.224 256.568 129.928C256.892 129.639 257.239 129.319 257.699 129.068C258.686 128.542 259.721 128.695 260.363 128.498C260.958 128.37 261.552 127.759 262.384 127.277C263.958 126.308 265.723 125.718 267.463 125.356C269.208 124.974 270.944 124.767 272.648 124.536C274.319 124.278 276.105 124.097 277.553 123.532C278.254 123.216 278.877 122.748 279.128 122.021C279.381 121.313 279.357 120.389 278.741 119.835L278.854 119.668Z" fill="#6D431B"/>
</g>
<g id="Group_47">
<path id="Vector_44" d="M331.544 126.364C325.916 125.595 320.298 124.969 314.664 124.631C309.032 124.263 303.395 124.227 297.757 124.309C292.125 124.401 286.446 124.641 280.862 125.498C278.113 125.969 275.32 126.787 273.242 128.621C272.734 129.082 272.269 129.58 271.858 130.135C271.448 130.692 271.075 131.291 270.664 131.885C269.884 133.086 268.749 134.234 267.379 134.884C266.024 135.567 264.548 135.888 263.11 136.089C261.661 136.288 260.251 136.374 258.832 136.479C255.995 136.684 253.153 136.846 250.309 136.931C244.631 137.131 238.902 137.134 233.257 136.948C230.44 136.859 227.705 136.956 224.973 137.419C222.23 137.871 219.47 138.567 216.622 139.016C213.79 139.484 210.797 139.623 207.94 139.027C206.538 138.758 205.187 138.394 203.846 138.524C202.527 138.651 201.179 139.322 200.546 140.572L200.362 140.493C200.86 139.078 202.293 138.156 203.748 137.886C205.236 137.601 206.717 137.851 208.101 138.029C210.853 138.415 213.609 138.052 216.335 137.467C219.066 136.883 221.786 136.079 224.626 135.512C227.474 134.91 230.438 134.79 233.289 134.815C238.984 134.948 244.603 135.111 250.268 135.05C253.095 135.012 255.923 134.976 258.751 134.893C261.575 134.752 264.443 134.936 266.912 133.892C268.146 133.376 269.135 132.5 269.968 131.376C270.806 130.276 271.656 129.039 272.799 128.105C275.082 126.216 277.96 125.401 280.744 124.861C286.351 123.851 291.99 123.029 297.692 122.646C303.39 122.328 309.118 122.493 314.791 123.087C320.468 123.652 326.091 124.694 331.584 126.169L331.544 126.364Z" fill="#6D431B"/>
</g>
<g id="Group_48">
<path id="Vector_45" d="M198.806 142.034C200.252 141.14 201.854 140.506 203.484 140.017C205.116 139.525 206.778 139.153 208.438 138.852C211.759 138.226 215.098 137.668 218.455 137.267C225.169 136.451 231.923 136.033 238.669 135.924C245.414 135.86 252.162 135.979 258.906 136.202C265.65 136.397 272.387 136.869 279.101 137.595C285.823 138.297 292.491 139.315 299.141 140.55C302.47 141.186 305.809 141.959 309.061 143.108C309.87 143.405 310.681 143.703 311.472 144.055C311.865 144.231 312.255 144.383 312.717 144.645C313.16 144.898 313.671 145.269 314.029 145.864C314.374 146.451 314.508 147.179 314.333 147.879C314.161 148.566 313.765 149.079 313.362 149.458C312.533 150.202 311.614 150.616 310.601 150.82C303.634 152.129 296.849 150.661 290.244 150.632C288.591 150.646 286.936 150.669 285.311 150.91C284.49 150.989 283.696 151.19 282.889 151.348C282.489 151.44 282.102 151.574 281.707 151.685C281.313 151.806 280.906 151.902 280.576 152.064C279.889 152.372 279.301 152.876 279.301 153.475C279.274 153.768 279.462 154.143 279.54 154.65C279.622 155.169 279.427 155.737 279.079 156.096C278.39 156.823 277.354 156.993 276.508 156.86C275.66 156.764 274.841 156.543 274.058 156.793L273.986 156.606C274.814 156.252 275.729 156.395 276.539 156.418C277.347 156.484 278.138 156.228 278.589 155.674C278.8 155.402 278.873 155.088 278.802 154.774C278.742 154.45 278.488 154.062 278.452 153.501C278.402 152.953 278.653 152.405 278.983 152.031C279.318 151.651 279.714 151.377 280.124 151.159C280.543 150.928 280.955 150.808 281.357 150.657C281.765 150.516 282.167 150.351 282.581 150.229C283.415 150.012 284.245 149.753 285.097 149.619C286.791 149.269 288.511 149.128 290.221 149.068C297.051 148.87 303.804 150.014 310.18 148.728C310.811 148.597 311.483 148.285 311.901 147.894C312.11 147.701 312.227 147.502 312.258 147.368C312.296 147.25 312.267 147.091 312.193 146.951C312.063 146.671 311.411 146.329 310.618 146.003C309.87 145.671 309.11 145.361 308.343 145.066C305.263 143.908 302.037 143.087 298.766 142.395C292.195 141.056 285.586 139.758 278.955 138.681C272.319 137.619 265.615 136.929 258.889 136.851C255.527 136.807 252.163 136.912 248.803 137.066C245.442 137.213 242.08 137.4 238.722 137.589C232.006 137.93 225.299 138.219 218.615 138.81C215.274 139.111 211.932 139.426 208.606 139.889C205.283 140.33 201.953 140.787 198.899 142.213L198.806 142.034Z" fill="#6D431B"/>
</g>
<g id="Group_49">
<path id="Vector_46" d="M224.428 149.515C222.389 149.932 220.397 150.207 218.303 150.407C217.75 150.444 217.103 150.425 216.429 150.099C215.754 149.779 215.219 149.036 215.131 148.304C215.021 147.577 215.168 146.895 215.474 146.284C215.627 145.983 215.842 145.678 216.093 145.441C216.336 145.211 216.605 145.018 216.882 144.861C217.435 144.541 218.009 144.374 218.547 144.265C219.086 144.146 219.587 144.091 220.105 144.021C221.134 143.888 222.169 143.815 223.198 143.736C225.262 143.623 227.301 143.454 229.342 143.25L235.468 142.567C237.514 142.351 239.563 142.279 241.606 142.198C243.652 142.105 245.794 142.056 247.944 142.546C249.01 142.804 250.084 143.173 251.067 143.758C252.043 144.346 252.935 145.123 253.579 146.064L254.115 146.846L253.384 147.278C252.189 147.983 250.913 148.539 249.598 148.926C248.284 149.315 246.925 149.524 245.579 149.547L245.548 149.349C246.824 148.968 248.041 148.479 249.197 147.902C250.352 147.323 251.442 146.646 252.456 145.883L252.261 147.097C251.048 145.729 249.346 144.976 247.494 144.623C246.568 144.44 245.607 144.32 244.626 144.267C243.644 144.186 242.649 144.161 241.628 144.144C239.585 144.109 237.547 144.087 235.508 143.986C233.469 143.896 231.426 143.804 229.39 143.894C227.355 143.987 225.327 144.245 223.35 144.741C222.359 144.971 221.379 145.239 220.405 145.512C219.425 145.792 218.434 146.013 217.776 146.402C217.61 146.501 217.465 146.611 217.339 146.735C217.22 146.85 217.127 146.96 217.042 147.111C216.874 147.401 216.791 147.766 216.825 148.053C216.865 148.338 216.958 148.534 217.193 148.693C217.428 148.853 217.837 148.925 218.297 148.956C220.287 149.001 222.377 149.072 224.421 149.312L224.428 149.515Z" fill="#6D431B"/>
</g>
<g id="Group_50">
<path id="Vector_47" d="M246.962 150.717C248.423 150.903 249.882 151.136 251.3 151.029C252.703 150.933 254.066 150.473 255.06 149.609C255.562 149.16 255.912 148.693 256.232 148.043C256.409 147.716 256.601 147.338 256.936 146.977C257.274 146.618 257.743 146.335 258.221 146.222C259.189 145.992 260.028 146.205 260.774 146.383C261.52 146.585 262.171 146.761 262.884 146.909C265.671 147.532 268.561 147.72 271.381 147.541C272.751 147.457 273.878 147.048 274.366 146.036C274.604 145.552 274.645 145.042 274.401 144.633C274.161 144.191 273.671 143.934 273.394 144.068L269.631 145.889L272.675 143.052L274.215 141.616L274.54 142.55C267.819 141.414 261.031 140.737 254.224 140.432C250.823 140.247 247.416 140.17 244.017 140.01C240.613 139.899 237.216 139.691 233.858 139.739C227.158 139.852 220.534 141.143 213.92 142.672L208.951 143.834C207.404 144.148 205.865 144.926 206.267 146.135C206.441 146.714 207.04 147.262 207.712 147.717C208.394 148.193 209.107 148.628 209.838 149.034C211.303 149.847 212.884 150.456 214.521 150.91L214.482 151.106C212.777 150.894 211.099 150.418 209.494 149.752C208.688 149.424 207.911 149.026 207.158 148.583C206.414 148.139 205.559 147.599 205.11 146.558C204.902 146.037 204.869 145.44 205.041 144.877C205.21 144.307 205.588 143.861 205.977 143.525C206.766 142.852 207.695 142.534 208.541 142.287C210.175 141.801 211.813 141.317 213.464 140.869C220.037 139.051 226.891 137.579 233.856 137.753C237.316 137.806 240.723 138.073 244.12 138.376C247.522 138.652 250.913 139.069 254.304 139.448C261.082 140.264 267.858 140.967 274.67 141.456L275.78 141.536L274.995 142.391L273.571 143.942L272.852 142.926C273.37 142.661 274.002 142.697 274.473 142.908C274.947 143.12 275.327 143.452 275.604 143.859C275.887 144.251 276.056 144.783 276.078 145.272C276.098 145.759 276.009 146.246 275.828 146.68C275.48 147.554 274.785 148.256 273.969 148.672C273.165 149.085 272.315 149.246 271.534 149.312C268.484 149.564 265.441 149.259 262.502 148.529C261.037 148.2 259.556 147.466 258.557 147.657C258.076 147.735 257.778 148.048 257.393 148.703C257.026 149.354 256.454 150.071 255.796 150.533C254.469 151.502 252.838 151.872 251.312 151.786C249.778 151.72 248.333 151.333 246.922 150.911L246.962 150.717Z" fill="#6D431B"/>
</g>
<g id="Group_51">
<path id="Vector_48" d="M200.502 149.609C201.392 149.816 202.131 149.871 202.95 149.918C203.752 149.98 204.639 150.03 205.452 150.298C206.272 150.566 207.064 151.014 207.902 151.196C208.738 151.38 209.6 151.389 210.462 151.287C211.325 151.178 212.174 151.1 213.01 151.08C213.849 151.047 214.675 150.968 215.501 150.976C217.158 151.008 218.786 151.041 220.595 151.251L220.645 151.445C219.13 152.493 217.34 152.954 215.575 153.111C214.688 153.169 213.801 153.084 212.928 152.968C212.052 152.878 211.192 152.659 210.352 152.376C209.51 152.101 208.673 151.891 207.813 151.834C206.955 151.771 206.054 151.956 205.184 151.943C204.309 151.923 203.499 151.723 202.624 151.439C201.776 151.13 200.843 150.628 200.381 149.764L200.502 149.609Z" fill="#6D431B"/>
</g>
<g id="Group_52">
<path id="Vector_49" d="M332.409 138.637C330.991 138.667 329.588 138.667 328.189 138.784C326.792 138.865 325.403 139.002 324.024 139.179C322.655 139.4 321.218 139.504 320.085 139.967C319.502 140.185 318.973 140.491 318.605 140.861C318.239 141.239 318.095 141.642 318.093 142.114L317.394 141.261C318.153 141.442 318.916 141.607 319.673 141.8L320.707 142.065L320.283 143C320.039 143.538 319.591 143.949 319.069 144.16C318.553 144.374 317.917 144.396 317.372 144.125L318.497 143.311C318.509 143.558 318.575 143.77 318.771 143.991C318.966 144.208 319.262 144.412 319.607 144.577C320.283 144.919 321.143 145.12 321.977 145.491C322.801 145.845 323.57 146.299 324.299 146.797C324.664 147.047 325.013 147.314 325.352 147.6C325.688 147.896 326.049 148.225 326.258 148.704C326.474 149.176 326.445 149.772 326.164 150.22C325.89 150.667 325.478 150.952 325.065 151.154C324.65 151.36 324.205 151.489 323.77 151.576L322.51 151.849C320.83 152.21 319.149 152.584 317.458 152.914C314.083 153.617 310.664 154.121 307.225 154.423C305.507 154.584 303.785 154.71 302.061 154.809C301.21 154.867 300.31 154.87 299.498 154.901C299.125 154.915 298.787 154.967 298.563 155.052C298.331 155.15 298.284 155.203 298.225 155.298L297.52 153.848C299.135 154.302 300.766 154.695 302.393 155.112C304.024 155.511 305.66 155.896 307.302 156.261C310.584 157.012 313.897 157.64 317.23 158.281L317.211 158.48C313.809 158.491 310.412 158.216 307.031 157.796C305.342 157.575 303.658 157.308 301.984 156.989C300.306 156.687 298.645 156.296 296.987 155.901L295.816 155.622L296.281 154.451C296.561 153.747 297.245 153.231 297.817 153.046C298.399 152.837 298.925 152.791 299.406 152.77L301.982 152.709C303.683 152.679 305.384 152.621 307.084 152.529C310.482 152.316 313.882 152.082 317.288 151.774C318.988 151.602 320.689 151.413 322.379 151.152C323.225 150.997 324.093 150.942 324.794 150.597C325.147 150.433 325.473 150.205 325.644 149.912C325.812 149.626 325.824 149.268 325.677 148.961C325.38 148.334 324.571 147.881 323.884 147.447C323.167 147.025 322.395 146.71 321.612 146.466C320.846 146.216 319.999 146.129 319.092 145.8C318.646 145.64 318.181 145.418 317.752 145.046C317.319 144.683 316.98 144.081 316.899 143.477L316.75 142.373L318.024 142.663C318.132 142.688 318.267 142.68 318.402 142.611C318.535 142.543 318.635 142.425 318.673 142.308L319.283 143.508C318.517 143.357 317.757 143.177 316.994 143.013L316.3 142.864L316.294 142.16C316.29 141.69 316.37 141.202 316.567 140.756C316.767 140.317 317.048 139.93 317.369 139.618C318.02 139.005 318.765 138.633 319.508 138.379C320.242 138.127 321.049 138.004 321.751 137.938C322.465 137.862 323.181 137.803 323.898 137.779C325.331 137.71 326.766 137.738 328.191 137.837C329.615 137.975 331.033 138.13 332.424 138.44L332.409 138.637Z" fill="#6D431B"/>
</g>
<g id="Group_53">
<path id="Vector_50" d="M325.526 131.605C325.039 130.665 324.012 130.445 323.011 130.226L319.894 129.579C317.82 129.163 315.746 128.826 313.671 128.438C311.6 128.045 309.501 127.571 307.368 127.498C306.304 127.458 305.236 127.49 304.178 127.587C303.13 127.673 302.093 127.928 301.272 128.395C300.875 128.635 300.579 128.95 300.473 129.27C300.372 129.585 300.406 129.933 300.553 130.282C300.862 131.008 301.48 131.437 302.369 131.663C303.239 131.875 304.366 131.962 305.4 132.078L308.551 132.4C312.753 132.859 316.971 133.091 321.288 133.347L321.306 133.546C317.087 134.574 312.701 134.813 308.365 134.525C307.282 134.431 306.199 134.326 305.127 134.145C304.044 133.948 303.026 133.829 301.83 133.466C301.244 133.273 300.631 132.987 300.112 132.525C299.579 132.043 299.205 131.451 299.025 130.775C298.838 130.112 298.87 129.309 299.254 128.659C299.634 128.011 300.233 127.636 300.793 127.413C301.921 126.959 303.058 126.951 304.139 126.911L307.374 126.851C309.527 126.801 311.71 126.631 313.888 126.789C316.062 126.955 318.204 127.434 320.281 128.079C321.32 128.404 322.342 128.779 323.339 129.214C323.844 129.42 324.374 129.687 324.837 130.058C325.297 130.425 325.678 130.974 325.721 131.555L325.526 131.605Z" fill="#6D431B"/>
</g>
<g id="Group_54">
<path id="Vector_51" d="M329.509 129.209C324.879 127.749 320.181 126.719 315.435 126.194C313.063 125.921 310.679 125.82 308.296 125.801C305.914 125.795 303.523 125.84 301.136 126.064C298.751 126.288 296.332 126.664 293.886 126.828C293.274 126.864 292.661 126.902 292.046 126.9C291.428 126.904 290.817 126.853 290.238 126.883C289.66 126.909 289.091 127.008 288.661 127.296C288.225 127.58 287.97 128.055 287.91 128.577C287.847 129.1 287.963 129.658 288.197 130.143C288.423 130.634 288.786 131.028 289.224 131.369C290.097 132.045 291.223 132.408 292.368 132.835C294.649 133.661 296.908 134.541 299.169 135.416L300.065 135.763L299.594 136.652L298.93 137.904L298.933 137.019C298.986 137.094 299.046 137.143 299.3 137.196C299.547 137.24 299.866 137.23 300.255 137.191L302.671 136.977L307.504 136.554C310.728 136.297 313.956 136.102 317.186 135.927C320.415 135.754 323.662 135.671 326.848 135.469C330.034 135.245 333.2 134.746 336.211 133.567L336.3 133.746C334.901 134.586 333.374 135.223 331.808 135.725C330.235 136.208 328.622 136.545 327.007 136.814C323.765 137.34 320.547 137.578 317.329 137.909C314.108 138.198 310.885 138.468 307.657 138.676L302.813 138.951L300.391 139.085C299.976 139.109 299.477 139.133 298.93 139.018C298.398 138.924 297.675 138.553 297.342 137.9L297.101 137.426L297.345 137.015L298.069 135.796L298.493 137.031C296.285 136.03 294.076 135.034 291.888 133.984C290.816 133.462 289.616 132.987 288.616 132.096C287.598 131.231 287.015 129.822 287.215 128.478C287.312 127.799 287.722 127.133 288.317 126.765C288.913 126.385 289.594 126.299 290.215 126.277C291.473 126.283 292.626 126.307 293.83 126.166C296.217 125.91 298.547 125.254 300.96 124.81C303.371 124.354 305.826 124.052 308.29 124.027C310.754 123.989 313.217 124.195 315.651 124.549C320.517 125.277 325.262 126.778 329.587 129.028L329.509 129.209Z" fill="#6D431B"/>
</g>
</g>
</g>
<g id="Group_55">
<path id="Vector_52" d="M234.118 134.21C234.041 137.482 233.47 139.984 232.407 141.713C231.344 143.442 229.844 144.263 227.91 144.176C225.976 144.089 224.465 143.123 223.376 141.277C222.287 139.431 221.782 136.856 221.86 133.553C221.938 130.251 222.554 127.678 223.712 125.833C224.869 123.989 226.443 123.111 228.432 123.201C229.619 123.255 230.619 123.632 231.433 124.334C232.247 125.036 232.842 125.961 233.217 127.109C233.879 129.225 234.18 131.591 234.118 134.21ZM233.118 133.658C233.182 130.901 232.805 128.681 231.987 126.995C231.169 125.31 229.956 124.432 228.351 124.359C226.744 124.287 225.449 125.047 224.46 126.641C223.473 128.234 222.943 130.56 222.872 133.614C222.788 137.165 223.465 139.806 224.903 141.539C225.703 142.489 226.632 142.987 227.69 143.035C228.748 143.082 229.621 142.864 230.308 142.378C230.994 141.893 231.532 141.202 231.918 140.306C232.653 138.631 233.052 136.415 233.118 133.658Z" fill="#F2F2F2"/>
<path id="Vector_53" d="M249.391 137.13C249.36 138.479 249.213 139.658 248.953 140.67C248.691 141.681 248.376 142.456 248.008 142.995C247.639 143.535 247.204 143.962 246.703 144.277C245.441 145.094 244.079 145.211 242.612 144.629C242.105 144.428 241.574 144.082 241.021 143.59C240.466 143.098 240.027 142.339 239.704 141.312C239.383 140.285 239.237 139.038 239.272 137.57C239.328 135.19 239.811 133.271 240.723 131.813C241.635 130.354 242.915 129.663 244.567 129.737C246.218 129.811 247.442 130.572 248.24 132.017C249.036 133.461 249.419 135.166 249.391 137.13ZM243.864 143.852L244.192 143.896L244.493 143.88C246.98 143.734 248.274 141.518 248.376 137.234C248.418 135.469 248.124 133.976 247.495 132.756C246.867 131.537 245.831 130.894 244.391 130.829C243.46 130.787 242.677 131.099 242.039 131.766C240.934 132.948 240.351 134.837 240.289 137.435L240.283 137.673C240.245 139.319 240.522 140.717 241.116 141.865C241.709 143.015 242.624 143.676 243.864 143.852Z" fill="#F2F2F2"/>
<path id="Vector_54" d="M264.471 137.809C264.44 139.159 264.292 140.337 264.032 141.349C263.77 142.36 263.456 143.135 263.087 143.674C262.718 144.214 262.283 144.641 261.782 144.956C260.521 145.773 259.158 145.891 257.692 145.308C257.184 145.107 256.654 144.761 256.1 144.269C255.545 143.778 255.106 143.018 254.784 141.991C254.462 140.964 254.316 139.717 254.351 138.249C254.407 135.869 254.891 133.95 255.802 132.492C256.714 131.033 257.994 130.342 259.646 130.416C261.297 130.49 262.521 131.251 263.319 132.696C264.114 134.14 264.499 135.845 264.471 137.809ZM258.942 144.53L259.27 144.574L259.572 144.558C262.059 144.412 263.353 142.196 263.455 137.912C263.497 136.147 263.202 134.654 262.574 133.434C261.946 132.215 260.91 131.572 259.469 131.507C258.538 131.465 257.755 131.778 257.118 132.444C256.013 133.626 255.429 135.515 255.367 138.114L255.361 138.352C255.323 139.998 255.6 141.397 256.194 142.544C256.789 143.693 257.704 144.355 258.942 144.53Z" fill="#F2F2F2"/>
<path id="Vector_55" d="M270.784 153.552L269.771 153.506L270.298 131.191L271.311 131.236L271.268 133.021C272.505 131.667 273.808 131.021 275.176 131.082C275.924 131.116 276.674 131.457 277.427 132.106C279.002 133.448 279.755 135.617 279.685 138.612C279.601 142.143 278.333 144.399 275.88 145.381C274.626 145.88 272.986 146.124 270.959 146.112L270.784 153.552ZM278.019 141.874C278.423 140.979 278.644 139.793 278.679 138.315C278.713 136.838 278.375 135.457 277.666 134.174C276.957 132.891 276.063 132.225 274.987 132.177C274.294 132.146 273.653 132.34 273.069 132.76C272.484 133.181 271.871 133.763 271.233 134.509L270.986 145.012C274.653 145.178 276.997 144.132 278.019 141.874Z" fill="#F2F2F2"/>
<path id="Vector_56" d="M289.811 145.443C290.921 145.175 291.697 144.804 292.138 144.326C292.578 143.85 292.808 143.19 292.828 142.347C292.848 141.504 292.572 140.831 292 140.329C291.427 139.827 290.727 139.488 289.899 139.311C289.072 139.135 288.246 138.943 287.42 138.738C286.593 138.532 285.896 138.128 285.324 137.527C284.755 136.926 284.482 136.079 284.508 134.988C284.563 132.687 286.232 131.61 289.516 131.759C290.721 131.813 292.113 132.015 293.695 132.364L293.668 133.524C292.031 133.133 290.658 132.912 289.546 132.862C288.433 132.812 287.485 132.943 286.701 133.256C285.917 133.568 285.516 134.136 285.496 134.959C285.476 135.782 285.754 136.429 286.326 136.902C286.9 137.375 287.599 137.713 288.427 137.92C289.252 138.126 290.082 138.357 290.916 138.613C291.751 138.869 292.452 139.333 293.021 140.003C293.589 140.674 293.859 141.595 293.832 142.765C293.798 144.213 293.254 145.231 292.198 145.819C291.68 146.114 291.182 146.345 290.702 146.511C290.223 146.678 289.592 146.773 288.805 146.798C287.562 146.861 286.374 146.867 285.244 146.817L284.559 146.786L284.584 145.685C286.957 145.792 288.7 145.711 289.811 145.443Z" fill="#F2F2F2"/>
<path id="Vector_57" d="M300.928 147.462L298.821 147.367L298.887 144.541L300.994 144.636L300.928 147.462Z" fill="#F2F2F2"/>
<path id="Vector_58" d="M308.619 147.809L306.512 147.714L306.578 144.888L308.685 144.983L308.619 147.809Z" fill="#F2F2F2"/>
<path id="Vector_59" d="M316.31 148.154L314.202 148.059L314.268 145.233L316.375 145.328L316.31 148.154Z" fill="#F2F2F2"/>
</g>
</g>
<path id="left-bottom-leaf" d="M146.349 284.351C146.349 284.351 127.059 285.241 134.95 276.789C142.842 268.337 157.309 280.792 157.309 280.792C159.063 278.568 159.063 267.447 159.063 267.447C154.24 248.764 137.142 261.219 127.058 264.333C116.974 267.447 119.605 261.664 119.605 261.664C125.743 246.54 155.117 256.433 155.117 256.433C154.24 244.974 146.787 242.092 146.787 242.092C119.167 228.747 119.605 251.878 107.768 255.437C95.931 258.996 100.315 251.878 100.315 251.878C111.714 235.419 135.827 234.085 135.827 234.085C134.073 223.854 123.551 220.74 123.551 220.74C99.877 220.74 91.546 248.764 87.309 237.644C83.072 226.523 115.221 218.516 115.221 218.516C115.221 218.516 115.221 209.175 101.63 209.619C88.039 210.064 81.463 237.199 78.832 228.747C76.201 220.295 87.6 206.061 87.6 206.061C52.965 202.947 59.98 242.982 59.98 242.982L59.885 242.988C59.885 242.988 21.284 253.919 39.056 284.242C39.056 284.242 46.762 267.651 55.409 266.395C64.056 265.139 42.802 282.909 48.296 295.53C53.789 308.151 62.087 304.104 62.087 304.104C62.087 304.104 55.271 271.236 66.985 270.293C78.699 269.35 57.415 289.109 67.672 310.758C67.672 310.758 74.997 319.031 84.845 316.202C84.845 316.202 75.583 293.574 85.264 276.019C85.264 276.019 89.687 268.926 91.654 281.293C93.621 293.66 72.885 303.28 96.705 322.756C96.705 322.756 102.494 328.323 113.053 324.16C113.053 324.16 91.539 301.585 102.314 289.42C102.314 289.42 106.311 284.509 107.914 295.079C109.517 305.649 105.861 326.681 124.546 322.997C124.546 322.997 134.424 318.179 135.64 315.612C135.64 315.612 118.308 307.778 122.396 296.9C126.485 286.022 134.052 304.047 134.052 304.047C134.052 304.047 133.998 320.361 148.808 313.631L161.124 307.624L161.255 307.708V293.696C160.817 277.233 146.349 284.351 146.349 284.351Z" fill="#175648"/>
<path id="right-bottom-leaf" d="M333.815 320.119C333.815 320.119 347.932 304.637 348.362 317.175C348.792 329.714 328.136 331.258 328.136 331.258C328.497 334.31 337.029 342.842 337.029 342.842C355.063 353.476 358.625 330.802 363.972 320.677C369.319 310.552 371.738 317.007 371.738 317.007C378.633 333.32 348.506 348.266 348.506 348.266C357.97 356.385 365.9 352.878 365.9 352.878C397.329 341.926 379.246 324.516 385.598 312.704C391.95 300.892 394.046 309.716 394.046 309.716C397.928 331.089 380.452 350.613 380.452 350.613C389.647 357.117 400.108 351.433 400.108 351.433C418.271 333.27 403.162 305.378 414.944 310.659C426.727 315.94 408.205 346.749 408.205 346.749C408.205 346.749 415.372 353.916 425.458 343.147C435.544 332.379 419.771 306.515 428.274 310.981C436.777 315.447 438.952 335.114 438.952 335.114C467.914 310.93 431.816 285.597 431.816 285.597L431.884 285.519C431.884 285.519 453.113 247.517 416.214 237.888C416.214 237.888 423.031 256.529 417.361 264.127C411.691 271.725 414.363 241.785 400.466 236.317C386.569 230.849 383.307 240.32 383.307 240.32C383.307 240.32 413.754 260.307 405.49 270.018C397.227 279.729 398.397 248.24 373.918 239.5C373.918 239.5 361.951 238.773 356.566 248.499C356.566 248.499 381.033 258.754 387.073 279.65C387.073 279.65 389.122 288.485 378.124 280.507C367.127 272.529 375.655 249.238 342.437 252.571C342.437 252.571 333.724 252.742 328.817 264.037C328.817 264.037 362.643 264.851 363.71 282.451C363.71 282.451 364.411 289.285 355.072 282.406C345.733 275.526 332.401 256.585 320.893 273.748C320.893 273.748 317.011 285.023 318.048 287.926C318.048 287.926 337.356 280.639 342.565 292.122C347.774 303.605 328.139 295.581 328.139 295.581C328.139 295.581 315.664 283.024 309.465 299.549L304.625 313.606L304.46 313.642L315.21 324.392C328.175 336.679 333.815 320.119 333.815 320.119Z" fill="#175648"/>
<path id="PAGE NOT FOUND" d="M142.477 329.733V308.561H149.631C151.292 308.561 152.649 308.861 153.704 309.46C154.765 310.053 155.551 310.856 156.061 311.869C156.571 312.882 156.826 314.012 156.826 315.26C156.826 316.507 156.571 317.641 156.061 318.661C155.558 319.681 154.779 320.494 153.725 321.101C152.67 321.7 151.319 322 149.672 322H144.545V319.726H149.589C150.727 319.726 151.64 319.529 152.329 319.136C153.018 318.744 153.518 318.213 153.828 317.544C154.145 316.869 154.303 316.107 154.303 315.26C154.303 314.412 154.145 313.654 153.828 312.985C153.518 312.317 153.015 311.793 152.319 311.414C151.623 311.028 150.699 310.835 149.548 310.835H145.041V329.733H142.477ZM159.664 329.733H156.976L164.75 308.561H167.396L175.17 329.733H172.482L166.156 311.91H165.99L159.664 329.733ZM160.656 321.462H171.49V323.737H160.656V321.462ZM191.946 315.177C191.719 314.481 191.419 313.857 191.047 313.306C190.681 312.748 190.244 312.272 189.734 311.879C189.231 311.486 188.659 311.187 188.018 310.98C187.377 310.773 186.674 310.67 185.909 310.67C184.654 310.67 183.514 310.994 182.487 311.641C181.46 312.289 180.643 313.244 180.037 314.505C179.43 315.766 179.127 317.313 179.127 319.147C179.127 320.98 179.434 322.527 180.047 323.788C180.661 325.05 181.491 326.004 182.539 326.652C183.586 327.3 184.765 327.624 186.074 327.624C187.287 327.624 188.355 327.365 189.279 326.848C190.209 326.325 190.933 325.587 191.45 324.636C191.974 323.678 192.235 322.551 192.235 321.256L193.021 321.421H186.653V319.147H194.716V321.421C194.716 323.165 194.344 324.681 193.6 325.97C192.863 327.258 191.843 328.258 190.54 328.968C189.244 329.671 187.756 330.022 186.074 330.022C184.2 330.022 182.552 329.581 181.133 328.699C179.72 327.817 178.617 326.562 177.825 324.936C177.039 323.309 176.646 321.38 176.646 319.147C176.646 317.472 176.87 315.966 177.318 314.629C177.773 313.285 178.414 312.141 179.241 311.197C180.068 310.253 181.046 309.529 182.177 309.026C183.307 308.523 184.551 308.271 185.909 308.271C187.025 308.271 188.066 308.44 189.031 308.778C190.002 309.109 190.867 309.581 191.625 310.194C192.39 310.801 193.028 311.528 193.538 312.375C194.048 313.216 194.399 314.15 194.592 315.177H191.946ZM199.107 329.733V308.561H211.885V310.835H201.671V317.989H211.223V320.263H201.671V327.458H212.05V329.733H199.107ZM241.482 308.561V329.733H239.001L227.464 313.109H227.257V329.733H224.693V308.561H227.175L238.753 325.225H238.96V308.561H241.482ZM264.476 319.147C264.476 321.38 264.073 323.309 263.266 324.936C262.46 326.562 261.354 327.817 259.948 328.699C258.542 329.581 256.936 330.022 255.13 330.022C253.325 330.022 251.719 329.581 250.313 328.699C248.907 327.817 247.801 326.562 246.995 324.936C246.188 323.309 245.785 321.38 245.785 319.147C245.785 316.914 246.188 314.984 246.995 313.358C247.801 311.731 248.907 310.477 250.313 309.595C251.719 308.712 253.325 308.271 255.13 308.271C256.936 308.271 258.542 308.712 259.948 309.595C261.354 310.477 262.46 311.731 263.266 313.358C264.073 314.984 264.476 316.914 264.476 319.147ZM261.995 319.147C261.995 317.313 261.688 315.766 261.075 314.505C260.468 313.244 259.645 312.289 258.604 311.641C257.57 310.994 256.412 310.67 255.13 310.67C253.849 310.67 252.687 310.994 251.647 311.641C250.613 312.289 249.789 313.244 249.176 314.505C248.569 315.766 248.266 317.313 248.266 319.147C248.266 320.98 248.569 322.527 249.176 323.788C249.789 325.05 250.613 326.004 251.647 326.652C252.687 327.3 253.849 327.624 255.13 327.624C256.412 327.624 257.57 327.3 258.604 326.652C259.645 326.004 260.468 325.05 261.075 323.788C261.688 322.527 261.995 320.98 261.995 319.147ZM266.748 310.835V308.561H282.626V310.835H275.969V329.733H273.405V310.835H266.748ZM294.771 329.733V308.561H307.466V310.835H297.334V317.989H306.514V320.263H297.334V329.733H294.771ZM329.72 319.147C329.72 321.38 329.317 323.309 328.511 324.936C327.704 326.562 326.598 327.817 325.192 328.699C323.786 329.581 322.18 330.022 320.375 330.022C318.569 330.022 316.963 329.581 315.557 328.699C314.151 327.817 313.045 326.562 312.239 324.936C311.433 323.309 311.029 321.38 311.029 319.147C311.029 316.914 311.433 314.984 312.239 313.358C313.045 311.731 314.151 310.477 315.557 309.595C316.963 308.712 318.569 308.271 320.375 308.271C322.18 308.271 323.786 308.712 325.192 309.595C326.598 310.477 327.704 311.731 328.511 313.358C329.317 314.984 329.72 316.914 329.72 319.147ZM327.239 319.147C327.239 317.313 326.932 315.766 326.319 314.505C325.713 313.244 324.889 312.289 323.848 311.641C322.815 310.994 321.657 310.67 320.375 310.67C319.093 310.67 317.932 310.994 316.891 311.641C315.857 312.289 315.034 313.244 314.42 314.505C313.814 315.766 313.511 317.313 313.511 319.147C313.511 320.98 313.814 322.527 314.42 323.788C315.034 325.05 315.857 326.004 316.891 326.652C317.932 327.3 319.093 327.624 320.375 327.624C321.657 327.624 322.815 327.3 323.848 326.652C324.889 326.004 325.713 325.05 326.319 323.788C326.932 322.527 327.239 320.98 327.239 319.147ZM347.925 308.561H350.489V322.579C350.489 324.026 350.148 325.318 349.465 326.456C348.79 327.586 347.835 328.478 346.602 329.133C345.368 329.781 343.921 330.105 342.26 330.105C340.599 330.105 339.152 329.781 337.918 329.133C336.684 328.478 335.726 327.586 335.044 326.456C334.369 325.318 334.031 324.026 334.031 322.579V308.561H336.595V322.372C336.595 323.406 336.822 324.326 337.277 325.132C337.732 325.932 338.38 326.562 339.221 327.024C340.068 327.479 341.081 327.706 342.26 327.706C343.438 327.706 344.452 327.479 345.299 327.024C346.147 326.562 346.795 325.932 347.243 325.132C347.698 324.326 347.925 323.406 347.925 322.372V308.561ZM372.397 308.561V329.733H369.916L358.379 313.109H358.172V329.733H355.609V308.561H358.09L369.668 325.225H369.875V308.561H372.397ZM384.061 329.733H377.527V308.561H384.35C386.404 308.561 388.161 308.985 389.622 309.832C391.084 310.673 392.203 311.883 392.982 313.461C393.761 315.032 394.15 316.914 394.15 319.105C394.15 321.311 393.758 323.209 392.972 324.801C392.186 326.387 391.042 327.606 389.54 328.461C388.037 329.309 386.211 329.733 384.061 329.733ZM380.091 327.458H383.895C385.646 327.458 387.097 327.121 388.248 326.445C389.398 325.77 390.257 324.808 390.822 323.561C391.387 322.314 391.669 320.828 391.669 319.105C391.669 317.396 391.39 315.925 390.832 314.691C390.274 313.451 389.44 312.5 388.33 311.838C387.221 311.169 385.839 310.835 384.185 310.835H380.091V327.458Z" fill="black"/>
<g id="Group_56">
<g id="Group_57">
<path id="Vector_60" d="M344.656 285.301C347.734 274.328 367.607 265.159 367.607 265.159C401.678 248.428 385.896 200.356 385.896 200.356L377.09 205.82L383.773 198.766L382.945 193.68C378.688 183.559 371.16 190.004 371.16 190.004C361.977 186.278 354.601 200.529 353.565 205.616C352.529 210.703 348.746 212.668 348.746 212.668L348.163 222.831L346.922 215.202C326.088 236.118 338.64 260.55 344.612 265.171C350.584 269.792 346.67 277.819 346.67 277.819L344.656 285.301Z" fill="#0B6060"/>
</g>
<g id="Group_58">
<path id="Vector_61" d="M371.16 190.005C365.206 216.864 359.877 244.853 350.167 270.644C348.676 274.605 346.321 277.817 344.233 281.479C342.579 284.379 340.165 290.519 342.701 293.617C345.478 297.009 347.557 281.331 348.077 279.509C349.475 274.617 352.599 270.353 353.586 265.327C355.15 257.366 370.115 204.966 371.16 190.005Z" fill="#10949B"/>
</g>
<g id="Group_59">
<path id="Vector_62" d="M367.265 190.245C367.333 190.241 367.239 190.126 367.198 190.181C367.157 190.235 367.201 190.311 367.244 190.364C368.186 191.512 369.203 192.598 370.287 193.613" fill="#10949B"/>
</g>
<g id="Group_60">
<path id="Vector_63" d="M365.397 189.951C365.94 192.253 367.378 194.331 369.341 195.65Z" fill="#10949B"/>
</g>
<g id="Group_61">
<path id="Vector_64" d="M362.397 191.805C363.005 195.29 365.072 198.496 367.996 200.488Z" fill="#10949B"/>
</g>
<g id="Group_62">
<path id="Vector_65" d="M359.449 194.259C360.445 198.189 363.319 201.418 366.63 203.759Z" fill="#10949B"/>
</g>
<g id="Group_63">
<path id="Vector_66" d="M356.865 198.059C357.508 199.796 358.782 201.216 360.047 202.569C362.07 204.733 364.234 206.908 366.991 207.991" fill="#10949B"/>
</g>
<g id="Group_64">
<path id="Vector_67" d="M354.131 203.061C356.854 207.227 360.349 211.246 365.09 212.759Z" fill="#10949B"/>
</g>
<g id="Group_65">
<path id="Vector_68" d="M352.685 208.676C354.993 213.054 359.38 216.276 364.248 217.167Z" fill="#10949B"/>
</g>
<g id="Group_66">
<path id="Vector_69" d="M349.818 212.124C351.211 214.679 352.745 217.213 354.884 219.186C357.024 221.159 359.863 222.532 362.768 222.348" fill="#10949B"/>
</g>
<g id="Group_67">
<path id="Vector_70" d="M349.044 215.568C350.005 218.494 351.413 221.31 353.463 223.608C355.514 225.906 358.243 227.664 361.269 228.238" fill="#10949B"/>
</g>
<g id="Group_68">
<path id="Vector_71" d="M348.115 223.097C347.941 224.362 348.379 225.652 349.077 226.722C349.775 227.792 350.719 228.674 351.665 229.533C354.225 231.857 357.091 234.192 360.527 234.579" fill="#10949B"/>
</g>
<g id="Group_69">
<path id="Vector_72" d="M342.707 220.522C343.075 224.611 343.513 228.901 345.83 232.29C348.55 236.269 353.311 238.233 357.809 239.965" fill="#10949B"/>
</g>
<g id="Group_70">
<path id="Vector_73" d="M338.716 226.729C339.928 231.472 341.774 236.127 344.788 239.984C347.802 243.841 352.078 246.853 356.903 247.681" fill="#10949B"/>
</g>
<g id="Group_71">
<path id="Vector_74" d="M336.451 232.324C336.565 236.215 338.74 239.736 341.148 242.794C344.809 247.444 349.678 251.767 355.578 252.233" fill="#10949B"/>
</g>
<g id="Group_72">
<path id="Vector_75" d="M335.472 243.027C337.035 248.359 341.818 252.023 346.437 255.11C348.584 256.545 350.891 257.986 353.47 258.122" fill="#10949B"/>
</g>
<g id="Group_73">
<path id="Vector_76" d="M337.76 255.324C340.488 257.07 343.066 259.049 345.457 261.234C347.174 262.803 349.103 264.599 351.423 264.437" fill="#10949B"/>
</g>
<g id="Group_74">
<path id="Vector_77" d="M371.035 193.744C371.746 193.876 372.494 193.801 373.165 193.532C373.518 193.39 373.847 193.197 374.163 192.986C375.497 192.091 376.595 190.848 377.317 189.414" fill="#10949B"/>
</g>
<g id="Group_75">
<path id="Vector_78" d="M370.298 195.724C372.331 195.923 374.425 195.488 376.2 194.477C377.976 193.467 379.423 191.885 380.254 190.018" fill="#10949B"/>
</g>
<g id="Group_76">
<path id="Vector_79" d="M369.214 200.889C370.223 200.482 371.355 200.614 372.44 200.549C376.376 200.315 379.797 197.326 381.332 193.694" fill="#10949B"/>
</g>
<g id="Group_77">
<path id="Vector_80" d="M368.559 203.977C370.071 204.877 371.952 204.898 373.689 204.617C374.807 204.436 375.947 204.12 376.808 203.385" fill="#10949B"/>
</g>
<g id="Group_78">
<path id="Vector_81" d="M367.917 207.852C369.66 208.205 371.464 207.973 373.217 207.674C373.587 207.611 373.959 207.544 374.304 207.395C374.629 207.254 374.919 207.045 375.206 206.837C375.777 206.423 376.348 206.009 376.919 205.595" fill="#10949B"/>
</g>
<g id="Group_79">
<path id="Vector_82" d="M367.126 213.353C368.91 213.617 370.729 213.881 372.509 213.587C373.453 213.431 374.363 213.121 375.269 212.813C377.156 212.17 379.054 211.522 380.799 210.558C382.544 209.594 384.145 208.287 385.166 206.575" fill="#10949B"/>
</g>
<g id="Group_80">
<path id="Vector_83" d="M366.011 217.119C367.945 217.628 369.961 217.853 371.953 217.684C375.721 217.363 379.214 215.664 382.607 213.994C384.242 213.189 385.983 212.283 386.821 210.665" fill="#10949B"/>
</g>
<g id="Group_81">
<path id="Vector_84" d="M364.981 222.04C368.602 223.738 372.824 223.382 376.773 222.75C378.705 222.44 380.648 222.067 382.434 221.269C384.22 220.471 385.857 219.207 386.772 217.477" fill="#10949B"/>
</g>
<g id="Group_82">
<path id="Vector_85" d="M362.843 228.706C367.055 230.74 371.913 231.484 376.505 230.596C381.097 229.708 385.384 227.154 388.188 223.41" fill="#10949B"/>
</g>
<g id="Group_83">
<path id="Vector_86" d="M361.353 234.808C362.64 235.621 363.939 236.439 365.367 236.967C366.678 237.452 368.071 237.68 369.461 237.824C372.854 238.176 376.325 238.034 379.606 237.102C382.887 236.17 385.974 234.419 388.239 231.869" fill="#10949B"/>
</g>
<g id="Group_84">
<path id="Vector_87" d="M360.093 241.217C364.532 243.912 369.978 244.321 375.169 244.14C378.783 244.014 382.601 243.555 385.465 241.348" fill="#10949B"/>
</g>
<g id="Group_85">
<path id="Vector_88" d="M357.85 248.111C358.153 248.608 358.687 248.912 359.209 249.171C366.036 252.569 374.366 251.932 381.371 248.916" fill="#10949B"/>
</g>
<g id="Group_86">
<path id="Vector_89" d="M356.769 252.855C362.811 257.183 371.247 257.901 377.934 254.657Z" fill="#10949B"/>
</g>
<g id="Group_87">
<path id="Vector_90" d="M355.306 258.452C359.215 261.338 364.52 262.233 369.16 260.789Z" fill="#10949B"/>
</g>
<g id="Group_88">
<path id="Vector_91" d="M354.033 264.332C355.693 265.518 357.836 265.776 359.876 265.794C361.705 265.811 363.535 265.665 365.338 265.36" fill="#10949B"/>
</g>
</g>
<g id="Group_89">
<path id="Vector_92" d="M247.278 281.909C247.278 281.909 263.402 309.53 293.507 285.941C293.507 285.941 265.362 302.301 250.538 279.741L247.278 281.909Z" fill="#17CECE"/>
<g id="Group_90">
<g id="Group_91">
<path id="Vector_93" d="M254.124 293.227C258.228 291.533 265.814 295.422 265.814 295.422C279.132 301.846 290.076 285.454 290.076 285.454L286.285 284.068L290.053 284.421L291.413 282.945C293.492 279.207 289.707 278.449 289.707 278.449C288.642 274.738 282.501 275.902 280.692 276.807C278.883 277.712 277.372 277.025 277.372 277.025L274.116 279.289L276.156 277.075C264.737 275.715 260.264 285.435 260.282 288.377C260.301 291.319 256.899 292.048 256.899 292.048L254.124 293.227Z" fill="#0B6060"/>
</g>
<g id="Group_92">
<path id="Vector_94" d="M289.707 278.448C280.042 283.078 270.181 288.171 259.941 291.393C258.368 291.888 256.818 291.938 255.193 292.178C253.906 292.368 251.444 293.104 251.104 294.626C250.732 296.292 256.038 293.162 256.721 292.884C258.557 292.137 260.615 292.07 262.393 291.164C265.21 289.73 284.87 281.723 289.707 278.448Z" fill="#10949B"/>
</g>
<g id="Group_93">
<path id="Vector_95" d="M288.698 277.312C288.716 277.332 288.728 277.276 288.702 277.276C288.675 277.276 288.663 277.308 288.657 277.334C288.531 277.899 288.443 278.471 288.392 279.048" fill="#10949B"/>
</g>
<g id="Group_94">
<path id="Vector_96" d="M288.339 276.668C287.764 277.388 287.472 278.328 287.54 279.247Z" fill="#10949B"/>
</g>
<g id="Group_95">
<path id="Vector_97" d="M287.049 276.194C286.127 277.218 285.641 278.622 285.733 279.997Z" fill="#10949B"/>
</g>
<g id="Group_96">
<path id="Vector_98" d="M285.589 275.88C284.624 277.13 284.324 278.787 284.403 280.364Z" fill="#10949B"/>
</g>
<g id="Group_97">
<path id="Vector_99" d="M283.803 276.002C283.425 276.617 283.296 277.348 283.185 278.061C283.008 279.201 282.861 280.387 283.192 281.493" fill="#10949B"/>
</g>
<g id="Group_98">
<path id="Vector_100" d="M281.612 276.366C280.99 278.202 280.597 280.239 281.273 282.056Z" fill="#10949B"/>
</g>
<g id="Group_99">
<path id="Vector_101" d="M279.543 277.272C278.755 279.032 278.822 281.151 279.719 282.858Z" fill="#10949B"/>
</g>
<g id="Group_100">
<path id="Vector_102" d="M277.797 277.222C277.348 278.263 276.94 279.342 276.85 280.472C276.759 281.602 277.021 282.803 277.775 283.649" fill="#10949B"/>
</g>
<g id="Group_101">
<path id="Vector_103" d="M276.555 277.812C275.889 278.81 275.364 279.918 275.152 281.099C274.94 282.28 275.057 283.539 275.609 284.605" fill="#10949B"/>
</g>
<g id="Group_102">
<path id="Vector_104" d="M274.024 279.337C273.594 279.588 273.304 280.032 273.144 280.503C272.984 280.974 272.94 281.476 272.904 281.972C272.807 283.316 272.78 284.755 273.487 285.902" fill="#10949B"/>
</g>
<g id="Group_103">
<path id="Vector_105" d="M273.514 277.06C272.349 278.156 271.139 279.321 270.657 280.846C270.091 282.636 270.633 284.568 271.183 286.363" fill="#10949B"/>
</g>
<g id="Group_104">
<path id="Vector_106" d="M270.652 277.328C269.489 278.839 268.506 280.524 268.048 282.375C267.59 284.226 267.694 286.261 268.6 287.939" fill="#10949B"/>
</g>
<g id="Group_105">
<path id="Vector_107" d="M268.392 277.979C267.227 278.949 266.67 280.462 266.311 281.935C265.765 284.175 265.61 286.707 266.886 288.627" fill="#10949B"/>
</g>
<g id="Group_106">
<path id="Vector_108" d="M264.876 280.251C263.617 282.012 263.643 284.358 263.807 286.517C263.883 287.52 263.996 288.573 264.574 289.397" fill="#10949B"/>
</g>
<g id="Group_107">
<path id="Vector_109" d="M261.656 283.908C261.777 285.164 261.789 286.43 261.694 287.688C261.626 288.591 261.539 289.615 262.146 290.287" fill="#10949B"/>
</g>
<g id="Group_108">
<path id="Vector_110" d="M288.531 279.308C288.661 279.558 288.864 279.769 289.108 279.91C289.236 279.984 289.375 280.039 289.515 280.085C290.11 280.279 290.755 280.317 291.368 280.193" fill="#10949B"/>
</g>
<g id="Group_109">
<path id="Vector_111" d="M287.747 279.558C288.175 280.229 288.811 280.766 289.548 281.068C290.285 281.37 291.117 281.433 291.889 281.239" fill="#10949B"/>
</g>
<g id="Group_110">
<path id="Vector_112" d="M285.903 280.467C286.27 280.678 286.502 281.057 286.782 281.374C287.8 282.524 289.538 282.855 291.021 282.452" fill="#10949B"/>
</g>
<g id="Group_111">
<path id="Vector_113" d="M284.799 281.009C284.887 281.689 285.332 282.271 285.836 282.736C286.16 283.035 286.531 283.309 286.963 283.396" fill="#10949B"/>
</g>
<g id="Group_112">
<path id="Vector_114" d="M283.457 281.743C283.768 282.362 284.272 282.859 284.785 283.325C284.893 283.423 285.003 283.521 285.132 283.591C285.253 283.657 285.387 283.695 285.52 283.733C285.784 283.809 286.048 283.884 286.312 283.96" fill="#10949B"/>
</g>
<g id="Group_113">
<path id="Vector_115" d="M281.58 282.823C281.928 283.433 282.284 284.055 282.802 284.53C283.077 284.782 283.391 284.987 283.703 285.19C284.354 285.614 285.008 286.04 285.723 286.343C286.438 286.646 287.223 286.823 287.994 286.725" fill="#10949B"/>
</g>
<g id="Group_114">
<path id="Vector_116" d="M280.158 283.386C280.467 284.101 280.882 284.773 281.413 285.343C282.417 286.421 283.778 287.084 285.105 287.722C285.745 288.03 286.441 288.346 287.139 288.214" fill="#10949B"/>
</g>
<g id="Group_115">
<path id="Vector_117" d="M278.402 284.253C278.752 285.771 279.875 286.98 281.019 288.038C281.578 288.556 282.16 289.062 282.834 289.418C283.508 289.774 284.289 289.972 285.039 289.836" fill="#10949B"/>
</g>
<g id="Group_116">
<path id="Vector_118" d="M275.845 285.2C276.234 286.98 277.173 288.648 278.549 289.842C279.925 291.036 281.738 291.737 283.56 291.696" fill="#10949B"/>
</g>
<g id="Group_117">
<path id="Vector_119" d="M273.616 286.21C273.676 286.8 273.737 287.395 273.919 287.959C274.086 288.477 274.35 288.959 274.64 289.42C275.348 290.545 276.225 291.575 277.3 292.357C278.374 293.139 279.653 293.664 280.979 293.746" fill="#10949B"/>
</g>
<g id="Group_118">
<path id="Vector_120" d="M271.348 287.364C271.589 289.373 272.772 291.141 274.075 292.688C274.982 293.766 276.04 294.826 277.406 295.173" fill="#10949B"/>
</g>
<g id="Group_119">
<path id="Vector_121" d="M268.696 288.333C268.616 288.545 268.652 288.782 268.697 289.004C269.296 291.914 271.494 294.314 274.102 295.737" fill="#10949B"/>
</g>
<g id="Group_120">
<path id="Vector_122" d="M266.982 289.142C267.107 292.034 268.915 294.793 271.516 296.064Z" fill="#10949B"/>
</g>
<g id="Group_121">
<path id="Vector_123" d="M264.914 290.038C264.969 291.93 265.969 293.771 267.527 294.847Z" fill="#10949B"/>
</g>
<g id="Group_122">
<path id="Vector_124" d="M262.806 291.061C262.841 291.855 263.277 292.574 263.762 293.204C264.196 293.769 264.681 294.295 265.208 294.774" fill="#10949B"/>
</g>
</g>
</g>
<path id="404" d="M143.454 267.868V257.462L189.362 184.825H196.912V200.944H191.811L157.125 255.83V256.646H218.948V267.868H143.454ZM192.627 289.292V264.705V259.86V184.825H204.665V289.292H192.627ZM272.137 290.72C264.452 290.72 257.906 288.629 252.499 284.446C247.092 280.229 242.96 274.125 240.104 266.134C237.247 258.108 235.819 248.417 235.819 237.059C235.819 225.769 237.247 216.128 240.104 208.136C242.994 200.111 247.143 193.99 252.55 189.773C257.991 185.522 264.52 183.397 272.137 183.397C279.755 183.397 286.267 185.522 291.674 189.773C297.115 193.99 301.263 200.111 304.12 208.136C307.01 216.128 308.456 225.769 308.456 237.059C308.456 248.417 307.027 258.108 304.171 266.134C301.314 274.125 297.183 280.229 291.776 284.446C286.369 288.629 279.823 290.72 272.137 290.72ZM272.137 279.498C279.755 279.498 285.672 275.825 289.888 268.48C294.105 261.135 296.214 250.661 296.214 237.059C296.214 228.013 295.244 220.311 293.306 213.951C291.402 207.592 288.647 202.746 285.043 199.414C281.472 196.081 277.17 194.415 272.137 194.415C264.588 194.415 258.688 198.139 254.437 205.586C250.186 212.999 248.061 223.49 248.061 237.059C248.061 246.104 249.013 253.789 250.918 260.115C252.822 266.44 255.559 271.252 259.13 274.55C262.735 277.849 267.07 279.498 272.137 279.498ZM325.391 267.868V257.462L371.299 184.825H378.848V200.944H373.747L339.061 255.83V256.646H400.884V267.868H325.391ZM374.563 289.292V264.705V259.86V184.825H386.602V289.292H374.563Z" fill="black"/>
<g id="right-small-leaf">
<path id="Vector_125" d="M336.308 293.537C336.308 293.537 337.262 259.608 374.973 266.6C374.973 266.6 342.439 265.392 340.207 293.933L336.308 293.537Z" fill="#17CECE"/>
<path id="Vector_126" d="M345.085 287.692C345.085 287.692 362.84 258.763 392.033 283.637C392.033 283.637 364.44 266.358 348.266 289.981L345.085 287.692Z" fill="#17CECE"/>
<path id="Vector_127" d="M332.953 294.756C332.953 294.756 357.538 277.654 366.647 290.292C366.647 290.292 369.4 298.514 332.953 294.756Z" fill="#10949B"/>
<path id="Vector_128" d="M333.807 295.318C333.807 295.318 327.116 278.625 335.741 275.001C335.741 275.001 340.923 274.499 333.807 295.318Z" fill="#0B6060"/>
</g>
<g id="left-small-leaf">
<path id="Vector_129" d="M172.022 292.828C172.022 292.828 170.749 247.58 120.459 256.905C120.459 256.905 163.847 255.294 166.823 293.357L172.022 292.828Z" fill="#17CECE"/>
<path id="Vector_130" d="M175.365 294.253C175.365 294.253 150.78 277.151 141.671 289.789C141.671 289.789 138.918 298.011 175.365 294.253Z" fill="#10949B"/>
</g>
<g id="Group_123">
<path id="Vector_131" d="M164.089 77.992C164.089 79.109 163.184 80.014 162.067 80.014C160.95 80.014 160.045 79.109 160.045 77.992C160.045 76.875 160.95 75.97 162.067 75.97C163.183 75.97 164.089 76.875 164.089 77.992Z" fill="#FFF7BB"/>
<path id="Vector_132" d="M175.907 95.667C175.907 96.408 175.306 97.009 174.565 97.009C173.824 97.009 173.223 96.408 173.223 95.667C173.223 94.926 173.824 94.325 174.565 94.325C175.306 94.325 175.907 94.925 175.907 95.667Z" fill="#FFF7BB"/>
<path id="Vector_133" d="M304.461 361.022C305.578 361.022 306.483 360.117 306.483 359C306.483 357.883 305.578 356.978 304.461 356.978C303.344 356.978 302.439 357.883 302.439 359C302.439 360.117 303.344 361.022 304.461 361.022Z" fill="#FFF7BB"/>
<path id="Vector_134" d="M145.54 370.522C146.657 370.522 147.562 369.617 147.562 368.5C147.562 367.383 146.657 366.478 145.54 366.478C144.423 366.478 143.518 367.383 143.518 368.5C143.518 369.617 144.423 370.522 145.54 370.522Z" fill="#FFF7BB"/>
<path id="Vector_135" d="M398.135 296.794C398.135 297.911 397.23 298.816 396.113 298.816C394.996 298.816 394.091 297.911 394.091 296.794C394.091 295.677 394.996 294.772 396.113 294.772C397.229 294.771 398.135 295.677 398.135 296.794Z" fill="#FFF7BB"/>
<path id="Vector_136" d="M424.26 126.827C424.26 127.944 423.355 128.849 422.238 128.849C421.121 128.849 420.216 127.944 420.216 126.827C420.216 125.71 421.121 124.805 422.238 124.805C423.354 124.805 424.26 125.711 424.26 126.827Z" fill="#FFF7BB"/>
<path id="Vector_137" d="M285.26 63.141C285.26 64.258 284.355 65.163 283.238 65.163C282.121 65.163 281.216 64.258 281.216 63.141C281.216 62.024 282.121 61.119 283.238 61.119C284.354 61.119 285.26 62.024 285.26 63.141Z" fill="#FFF7BB"/>
<path id="Vector_138" d="M161.01 180.52C161.01 181.637 160.105 182.542 158.988 182.542C157.871 182.542 156.966 181.637 156.966 180.52C156.966 179.403 157.871 178.498 158.988 178.498C160.104 178.498 161.01 179.404 161.01 180.52Z" fill="#FFF7BB"/>
<path id="Vector_139" d="M320.26 161.827C320.26 162.944 319.355 163.849 318.238 163.849C317.121 163.849 316.216 162.944 316.216 161.827C316.216 160.71 317.121 159.805 318.238 159.805C319.354 159.805 320.26 160.711 320.26 161.827Z" fill="#FFF7BB"/>
<path id="Vector_140" d="M158.907 281.667C158.907 282.408 158.306 283.009 157.565 283.009C156.824 283.009 156.223 282.408 156.223 281.667C156.223 280.926 156.824 280.325 157.565 280.325C158.306 280.325 158.907 280.926 158.907 281.667Z" fill="#FFF7BB"/>
<path id="Vector_141" d="M327.849 337.028C327.849 337.769 327.248 338.37 326.507 338.37C325.766 338.37 325.165 337.769 325.165 337.028C325.165 336.287 325.766 335.686 326.507 335.686C327.248 335.686 327.849 336.287 327.849 337.028Z" fill="#FFF7BB"/>
<path id="Vector_142" d="M315.432 366.528C315.432 367.269 314.831 367.87 314.09 367.87C313.349 367.87 312.748 367.269 312.748 366.528C312.748 365.787 313.349 365.186 314.09 365.186C314.831 365.186 315.432 365.787 315.432 366.528Z" fill="#FFF7BB"/>
<path id="Vector_143" d="M176.974 339.712C176.974 340.453 176.373 341.054 175.632 341.054C174.891 341.054 174.29 340.453 174.29 339.712C174.29 338.971 174.891 338.37 175.632 338.37C176.373 338.37 176.974 338.971 176.974 339.712Z" fill="#FFF7BB"/>
<path id="Vector_144" d="M409.911 179.153C409.911 179.894 409.31 180.495 408.569 180.495C407.828 180.495 407.227 179.894 407.227 179.153C407.227 178.412 407.828 177.811 408.569 177.811C409.31 177.811 409.911 178.412 409.911 179.153Z" fill="#FFF7BB"/>
</g>
<path id="right-top-leaf" d="M337.59 172.757C337.59 172.757 342.25 153.377 348.362 163.629C354.474 173.881 337.97 184.646 337.97 184.646C339.671 187.024 350.696 190.218 350.696 190.218C370.604 190.804 363.167 170.275 362.977 159.383C362.787 148.492 367.764 152.761 367.764 152.761C380.995 163.191 362.748 189.47 362.748 189.47C374.36 191.893 379.359 185.332 379.359 185.332C400.524 161.783 377.466 155.573 377.338 142.815C377.21 130.057 383.007 136.448 383.007 136.448C396.05 152.477 390.445 176.766 390.445 176.766C401.092 177.967 407.202 168.43 407.202 168.43C414.003 144.959 388.613 128.65 400.855 127.644C413.097 126.638 411.8 160.811 411.8 160.811C411.8 160.811 421.061 163.495 424.525 149.893C427.988 136.291 402.976 121.976 412.111 121.796C421.246 121.616 432.083 137.006 432.083 137.006C445.12 103.564 403.415 99.017 403.415 99.017L403.436 98.921C403.436 98.921 403.689 57.512 368.521 66.419C368.521 66.419 382.755 78.825 381.517 87.758C380.278 96.692 368.767 70.516 354.677 72.336C340.586 74.156 342.215 83.545 342.215 83.545C342.215 83.545 376.758 86.23 374.328 98.114C371.898 109.998 358.423 83.221 334.014 87.17C334.014 87.17 323.708 92.055 323.684 102.631C323.684 102.631 348.778 99.95 363.401 114.591C363.401 114.591 369.162 121.013 356.337 119.411C343.512 117.809 339.931 94.487 313.78 112.507C313.78 112.507 306.598 116.648 307.692 128.311C307.692 128.311 336.253 113.467 345.219 127.645C345.219 127.645 348.939 133.018 338 131.571C327.06 130.124 307.26 120.457 305.545 140.04C305.545 140.04 307.484 151.217 309.68 153.16C309.68 153.16 322.426 138.228 332.036 145.406C341.646 152.584 321.602 154.908 321.602 154.908C321.602 154.908 305.444 150.168 307.861 166.784L310.278 180.719L310.157 180.825L324.049 184.85C340.49 189.145 337.59 172.757 337.59 172.757Z" fill="#175648"/>
</g>
</g>
</svg>
